<svg width="31" height="21" viewBox="0 0 31 21" fill="none" xmlns="http://www.w3.org/2000/svg">
<mask id="path-1-inside-1" fill="white">
<path d="M9.23848 6.84332C9.52625 6.49816 9.71479 6.01493 9.66517 5.54157C9.2484 5.56129 8.75224 5.8177 8.45455 6.16286C8.18662 6.46857 7.95839 6.9518 8.01793 7.42516C8.48432 7.45475 8.96063 7.18848 9.23848 6.84332ZM10.4293 9.87088C10.4193 8.83539 11.2727 8.34231 11.3124 8.31272C10.8262 7.61254 10.0819 7.51392 9.81402 7.50406C9.17894 7.44489 8.5637 7.8788 8.24616 7.8788C7.91869 7.8788 7.42254 7.51392 6.89661 7.52378C6.20198 7.53364 5.55698 7.92811 5.19974 8.5494C4.47535 9.80185 5.02113 11.646 5.72567 12.6618C6.07298 13.1548 6.47983 13.717 7.02561 13.6972C7.54161 13.6775 7.74008 13.3619 8.36524 13.3619C8.9904 13.3619 9.16901 13.6972 9.71479 13.6874C10.2705 13.6775 10.6277 13.1844 10.975 12.6815C11.372 12.1095 11.5307 11.5474 11.5407 11.5277C11.5208 11.5178 10.4392 11.1036 10.4293 9.87088ZM17.0877 6.84332C16.8793 6.64609 16.6114 6.4883 16.2939 6.37982C15.9763 6.27134 15.5893 6.22203 15.1527 6.22203C14.8748 6.22203 14.597 6.23189 14.3191 6.26148C14.0909 6.29106 13.8528 6.32065 13.6245 6.36009L13.5551 6.36996V13.6282H14.2199V10.5711C14.4481 10.6105 14.7061 10.6302 14.984 10.6302C15.3611 10.6302 15.7183 10.5809 16.0359 10.4922C16.3435 10.4034 16.6312 10.2555 16.8793 10.0583C17.1175 9.86102 17.306 9.61447 17.4449 9.32848C17.5839 9.04249 17.6533 8.70719 17.6533 8.32258C17.6533 8.00701 17.6037 7.72102 17.5045 7.48433C17.4053 7.23779 17.2663 7.03069 17.0877 6.84332ZM16.4725 9.61447C16.1351 9.90046 15.6488 10.0484 15.0336 10.0484C14.8649 10.0484 14.7061 10.0385 14.5573 10.0287C14.4481 10.0188 14.3291 9.99908 14.2199 9.9695V6.88277C14.3092 6.86304 14.4184 6.85318 14.5474 6.83346C14.7061 6.81374 14.9046 6.80387 15.1328 6.80387C15.3908 6.80387 15.6488 6.83346 15.8969 6.90249C16.1053 6.96166 16.3038 7.06028 16.4824 7.18848C16.6412 7.30682 16.7702 7.47447 16.8595 7.66185C16.9488 7.85908 16.9885 8.09576 16.9885 8.35217C16.9786 8.91429 16.8099 9.33834 16.4725 9.61447ZM21.6325 12.9576C21.6226 12.7505 21.6226 12.5434 21.6226 12.3363V10.3147C21.6226 10.078 21.6028 9.83143 21.5531 9.58489C21.5035 9.34821 21.4142 9.11152 21.2753 8.91429C21.1364 8.70719 20.9478 8.5494 20.7097 8.4212C20.4715 8.293 20.1639 8.23383 19.7967 8.23383C19.5288 8.23383 19.2609 8.27327 19.0128 8.34231C18.7548 8.4212 18.4968 8.53954 18.2785 8.68747L18.2289 8.72691L18.4571 9.24959L18.5365 9.19042C18.7151 9.07208 18.9136 8.98332 19.112 8.91429C19.3204 8.84526 19.5387 8.81567 19.7471 8.81567C20.025 8.81567 20.2433 8.86498 20.4021 8.9636C20.5608 9.06221 20.6799 9.19042 20.7593 9.32848C20.8387 9.47641 20.8982 9.6342 20.9181 9.80185C20.9478 9.9695 20.9577 10.1273 20.9577 10.2555V10.3147C19.9654 10.3147 19.2013 10.4724 18.6853 10.7979C18.1495 11.143 17.8716 11.6361 17.8716 12.2574C17.8716 12.4349 17.9014 12.6124 17.9709 12.7998C18.0304 12.9773 18.1296 13.145 18.2586 13.283C18.3876 13.4211 18.5563 13.5394 18.7548 13.6183C18.9533 13.7071 19.1914 13.7465 19.4494 13.7465C19.8166 13.7564 20.1837 13.6578 20.5013 13.4606C20.6402 13.3718 20.7593 13.283 20.8684 13.1746C20.9081 13.1351 20.9577 13.0858 20.9974 13.0365H21.0272L21.0867 13.6282H21.7318L21.7119 13.5296C21.6623 13.3422 21.6424 13.145 21.6325 12.9576ZM20.9577 11.9221C20.9577 11.9912 20.9379 12.0898 20.9081 12.2081C20.8684 12.3363 20.8089 12.4547 20.7295 12.5631C20.5608 12.8097 20.3127 12.9971 20.0349 13.0858C19.8662 13.145 19.6777 13.1647 19.499 13.1647C19.38 13.1647 19.2609 13.145 19.1517 13.1055C19.0426 13.0661 18.9433 13.0069 18.854 12.928C18.7647 12.8393 18.6953 12.7406 18.6456 12.6322C18.596 12.5138 18.5663 12.3659 18.5663 12.1884C18.5663 11.9024 18.6456 11.6756 18.7945 11.5079C18.9533 11.3304 19.1617 11.1924 19.3899 11.1036C19.6479 11.005 19.9158 10.9458 20.1937 10.9261C20.4517 10.9064 20.7097 10.8866 20.9677 10.8965V11.9221H20.9577ZM26.1575 8.35217L24.9171 11.715C24.8377 11.9221 24.7682 12.1194 24.6988 12.3265C24.669 12.4251 24.6392 12.5237 24.6095 12.6124H24.5896C24.5599 12.5138 24.5301 12.4152 24.4904 12.3166C24.4309 12.1194 24.3614 11.9221 24.282 11.7446L22.9523 8.36203H22.2378L24.1431 13.2239C24.1927 13.3422 24.2026 13.3915 24.2026 13.4211C24.2026 13.431 24.2026 13.4704 24.1431 13.6183C24.0439 13.8846 23.9049 14.1312 23.7362 14.3678C23.5874 14.5749 23.4485 14.7426 23.3195 14.8609C23.1706 15.0089 23.0218 15.1272 22.8729 15.2159C22.7141 15.3047 22.5752 15.3836 22.4561 15.4329L22.3867 15.4625L22.6149 16.0246L22.6844 15.995C22.7439 15.9753 22.863 15.9161 23.0317 15.8372C23.2103 15.7485 23.3988 15.6203 23.6072 15.4329C23.7859 15.2751 23.9545 15.0976 24.0835 14.8905C24.2225 14.6933 24.3614 14.4566 24.5003 14.1903C24.6392 13.9339 24.7682 13.6282 24.9072 13.3126C25.0362 12.9872 25.185 12.6223 25.3339 12.2278L26.872 8.36203L26.1575 8.35217ZM28.2215 1.34046H28.5391C28.6284 1.34046 28.7078 1.34046 28.7971 1.34046C28.9558 1.34046 29.1444 1.35032 29.3131 1.38977C29.4818 1.41936 29.6207 1.46867 29.7497 1.5377C30.0275 1.67576 30.2458 1.89272 30.3848 2.16885C30.4542 2.30691 30.5038 2.44498 30.5336 2.60277C30.5634 2.78028 30.5733 2.96765 30.5832 3.11558C30.5832 3.20433 30.5832 3.28323 30.5832 3.37198C30.5832 3.48046 30.5832 3.57908 30.5832 3.68756V17.8885C30.5832 17.997 30.5832 18.0956 30.5832 18.2041C30.5832 18.2928 30.5832 18.3717 30.5832 18.4605C30.5832 18.6183 30.5733 18.8056 30.5336 18.9831C30.5038 19.1311 30.4642 19.279 30.3848 19.4171C30.2458 19.6932 30.0275 19.9101 29.7497 20.0482C29.6108 20.1172 29.4619 20.1665 29.3131 20.1961C29.1444 20.2257 28.9658 20.2356 28.7971 20.2454C28.7078 20.2454 28.6184 20.2454 28.5391 20.2454C28.4299 20.2454 28.3307 20.2454 28.2215 20.2454H2.76857C2.66933 20.2454 2.56018 20.2454 2.46095 20.2454C2.37164 20.2454 2.28233 20.2454 2.20294 20.2454C2.02433 20.2454 1.85563 20.2257 1.68694 20.1961C1.53809 20.1665 1.38924 20.1172 1.25032 20.0482C1.1114 19.9792 0.992318 19.8904 0.883163 19.7819C0.774008 19.6735 0.684699 19.5551 0.615237 19.4171C0.545775 19.279 0.496159 19.1311 0.466389 18.9831C0.43662 18.8155 0.426697 18.638 0.416773 18.4703C0.416773 18.3816 0.416773 18.3027 0.416773 18.2139V17.9674V3.61853V3.37198C0.416773 3.28323 0.416773 3.20433 0.416773 3.11558C0.416773 2.95779 0.426697 2.77042 0.466389 2.59291C0.496159 2.44498 0.535851 2.29705 0.615237 2.15899C0.754161 1.88286 0.972471 1.6659 1.25032 1.52784C1.38924 1.4588 1.53809 1.4095 1.68694 1.38977C1.85563 1.36019 2.03425 1.35032 2.21287 1.34046C2.30218 1.34046 2.38156 1.34046 2.47087 1.34046H2.78841H28.2215ZM28.2215 0.92627H2.77849H2.46095C2.37164 0.92627 2.28233 0.92627 2.19302 0.92627C1.99456 0.92627 1.80602 0.945993 1.60755 0.975578C1.41901 1.00516 1.23047 1.0742 1.05186 1.15309C0.704545 1.3306 0.416773 1.61659 0.238156 1.96175C0.148848 2.13926 0.0893086 2.31678 0.0595391 2.51401C0.0297695 2.70138 0.00992318 2.89862 0.00992318 3.09585C0.00992318 3.18461 0.00992318 3.27337 0.00992318 3.36212L0 3.68756V17.8885V18.2041C0 18.2928 0 18.3816 0 18.4703C0.00992318 18.6676 0.0198463 18.8549 0.0496159 19.0522C0.0793854 19.2494 0.138924 19.4269 0.228233 19.6044C0.40685 19.9496 0.694622 20.2356 1.04193 20.4131C1.22055 20.5018 1.39917 20.561 1.59763 20.5906C1.78617 20.6202 1.98463 20.6399 2.1831 20.6399C2.27241 20.6399 2.36172 20.6399 2.45102 20.6399C2.56018 20.6399 2.65941 20.6399 2.76857 20.6399H28.2215C28.3307 20.6399 28.4299 20.6399 28.5391 20.6399C28.6284 20.6399 28.7177 20.6399 28.807 20.6399C29.0054 20.63 29.194 20.6202 29.3924 20.5906C29.581 20.561 29.7695 20.492 29.9481 20.4131C30.2955 20.2356 30.5832 19.9496 30.7618 19.6044C30.8512 19.4269 30.9107 19.2494 30.9405 19.0522C30.9802 18.8648 30.9901 18.6676 30.9901 18.4703C30.9901 18.3816 30.9901 18.2928 30.9901 18.2041C30.9901 18.0956 30.9901 17.997 30.9901 17.8885V3.68756C30.9901 3.57908 30.9901 3.48046 30.9901 3.37198C30.9901 3.28323 30.9901 3.19447 30.9901 3.10572C30.9901 2.90848 30.9702 2.72111 30.9405 2.52387C30.9107 2.3365 30.8512 2.14913 30.7618 1.97162C30.5832 1.62645 30.2955 1.34046 29.9481 1.16295C29.7695 1.0742 29.5909 1.01503 29.3924 0.98544C29.2039 0.955855 29.0054 0.936131 28.807 0.936131C28.7177 0.936131 28.6284 0.936131 28.5391 0.936131H28.2215V0.92627Z"/>
</mask>
<path d="M9.23848 6.84332C9.52625 6.49816 9.71479 6.01493 9.66517 5.54157C9.2484 5.56129 8.75224 5.8177 8.45455 6.16286C8.18662 6.46857 7.95839 6.9518 8.01793 7.42516C8.48432 7.45475 8.96063 7.18848 9.23848 6.84332ZM10.4293 9.87088C10.4193 8.83539 11.2727 8.34231 11.3124 8.31272C10.8262 7.61254 10.0819 7.51392 9.81402 7.50406C9.17894 7.44489 8.5637 7.8788 8.24616 7.8788C7.91869 7.8788 7.42254 7.51392 6.89661 7.52378C6.20198 7.53364 5.55698 7.92811 5.19974 8.5494C4.47535 9.80185 5.02113 11.646 5.72567 12.6618C6.07298 13.1548 6.47983 13.717 7.02561 13.6972C7.54161 13.6775 7.74008 13.3619 8.36524 13.3619C8.9904 13.3619 9.16901 13.6972 9.71479 13.6874C10.2705 13.6775 10.6277 13.1844 10.975 12.6815C11.372 12.1095 11.5307 11.5474 11.5407 11.5277C11.5208 11.5178 10.4392 11.1036 10.4293 9.87088ZM17.0877 6.84332C16.8793 6.64609 16.6114 6.4883 16.2939 6.37982C15.9763 6.27134 15.5893 6.22203 15.1527 6.22203C14.8748 6.22203 14.597 6.23189 14.3191 6.26148C14.0909 6.29106 13.8528 6.32065 13.6245 6.36009L13.5551 6.36996V13.6282H14.2199V10.5711C14.4481 10.6105 14.7061 10.6302 14.984 10.6302C15.3611 10.6302 15.7183 10.5809 16.0359 10.4922C16.3435 10.4034 16.6312 10.2555 16.8793 10.0583C17.1175 9.86102 17.306 9.61447 17.4449 9.32848C17.5839 9.04249 17.6533 8.70719 17.6533 8.32258C17.6533 8.00701 17.6037 7.72102 17.5045 7.48433C17.4053 7.23779 17.2663 7.03069 17.0877 6.84332ZM16.4725 9.61447C16.1351 9.90046 15.6488 10.0484 15.0336 10.0484C14.8649 10.0484 14.7061 10.0385 14.5573 10.0287C14.4481 10.0188 14.3291 9.99908 14.2199 9.9695V6.88277C14.3092 6.86304 14.4184 6.85318 14.5474 6.83346C14.7061 6.81374 14.9046 6.80387 15.1328 6.80387C15.3908 6.80387 15.6488 6.83346 15.8969 6.90249C16.1053 6.96166 16.3038 7.06028 16.4824 7.18848C16.6412 7.30682 16.7702 7.47447 16.8595 7.66185C16.9488 7.85908 16.9885 8.09576 16.9885 8.35217C16.9786 8.91429 16.8099 9.33834 16.4725 9.61447ZM21.6325 12.9576C21.6226 12.7505 21.6226 12.5434 21.6226 12.3363V10.3147C21.6226 10.078 21.6028 9.83143 21.5531 9.58489C21.5035 9.34821 21.4142 9.11152 21.2753 8.91429C21.1364 8.70719 20.9478 8.5494 20.7097 8.4212C20.4715 8.293 20.1639 8.23383 19.7967 8.23383C19.5288 8.23383 19.2609 8.27327 19.0128 8.34231C18.7548 8.4212 18.4968 8.53954 18.2785 8.68747L18.2289 8.72691L18.4571 9.24959L18.5365 9.19042C18.7151 9.07208 18.9136 8.98332 19.112 8.91429C19.3204 8.84526 19.5387 8.81567 19.7471 8.81567C20.025 8.81567 20.2433 8.86498 20.4021 8.9636C20.5608 9.06221 20.6799 9.19042 20.7593 9.32848C20.8387 9.47641 20.8982 9.6342 20.9181 9.80185C20.9478 9.9695 20.9577 10.1273 20.9577 10.2555V10.3147C19.9654 10.3147 19.2013 10.4724 18.6853 10.7979C18.1495 11.143 17.8716 11.6361 17.8716 12.2574C17.8716 12.4349 17.9014 12.6124 17.9709 12.7998C18.0304 12.9773 18.1296 13.145 18.2586 13.283C18.3876 13.4211 18.5563 13.5394 18.7548 13.6183C18.9533 13.7071 19.1914 13.7465 19.4494 13.7465C19.8166 13.7564 20.1837 13.6578 20.5013 13.4606C20.6402 13.3718 20.7593 13.283 20.8684 13.1746C20.9081 13.1351 20.9577 13.0858 20.9974 13.0365H21.0272L21.0867 13.6282H21.7318L21.7119 13.5296C21.6623 13.3422 21.6424 13.145 21.6325 12.9576ZM20.9577 11.9221C20.9577 11.9912 20.9379 12.0898 20.9081 12.2081C20.8684 12.3363 20.8089 12.4547 20.7295 12.5631C20.5608 12.8097 20.3127 12.9971 20.0349 13.0858C19.8662 13.145 19.6777 13.1647 19.499 13.1647C19.38 13.1647 19.2609 13.145 19.1517 13.1055C19.0426 13.0661 18.9433 13.0069 18.854 12.928C18.7647 12.8393 18.6953 12.7406 18.6456 12.6322C18.596 12.5138 18.5663 12.3659 18.5663 12.1884C18.5663 11.9024 18.6456 11.6756 18.7945 11.5079C18.9533 11.3304 19.1617 11.1924 19.3899 11.1036C19.6479 11.005 19.9158 10.9458 20.1937 10.9261C20.4517 10.9064 20.7097 10.8866 20.9677 10.8965V11.9221H20.9577ZM26.1575 8.35217L24.9171 11.715C24.8377 11.9221 24.7682 12.1194 24.6988 12.3265C24.669 12.4251 24.6392 12.5237 24.6095 12.6124H24.5896C24.5599 12.5138 24.5301 12.4152 24.4904 12.3166C24.4309 12.1194 24.3614 11.9221 24.282 11.7446L22.9523 8.36203H22.2378L24.1431 13.2239C24.1927 13.3422 24.2026 13.3915 24.2026 13.4211C24.2026 13.431 24.2026 13.4704 24.1431 13.6183C24.0439 13.8846 23.9049 14.1312 23.7362 14.3678C23.5874 14.5749 23.4485 14.7426 23.3195 14.8609C23.1706 15.0089 23.0218 15.1272 22.8729 15.2159C22.7141 15.3047 22.5752 15.3836 22.4561 15.4329L22.3867 15.4625L22.6149 16.0246L22.6844 15.995C22.7439 15.9753 22.863 15.9161 23.0317 15.8372C23.2103 15.7485 23.3988 15.6203 23.6072 15.4329C23.7859 15.2751 23.9545 15.0976 24.0835 14.8905C24.2225 14.6933 24.3614 14.4566 24.5003 14.1903C24.6392 13.9339 24.7682 13.6282 24.9072 13.3126C25.0362 12.9872 25.185 12.6223 25.3339 12.2278L26.872 8.36203L26.1575 8.35217ZM28.2215 1.34046H28.5391C28.6284 1.34046 28.7078 1.34046 28.7971 1.34046C28.9558 1.34046 29.1444 1.35032 29.3131 1.38977C29.4818 1.41936 29.6207 1.46867 29.7497 1.5377C30.0275 1.67576 30.2458 1.89272 30.3848 2.16885C30.4542 2.30691 30.5038 2.44498 30.5336 2.60277C30.5634 2.78028 30.5733 2.96765 30.5832 3.11558C30.5832 3.20433 30.5832 3.28323 30.5832 3.37198C30.5832 3.48046 30.5832 3.57908 30.5832 3.68756V17.8885C30.5832 17.997 30.5832 18.0956 30.5832 18.2041C30.5832 18.2928 30.5832 18.3717 30.5832 18.4605C30.5832 18.6183 30.5733 18.8056 30.5336 18.9831C30.5038 19.1311 30.4642 19.279 30.3848 19.4171C30.2458 19.6932 30.0275 19.9101 29.7497 20.0482C29.6108 20.1172 29.4619 20.1665 29.3131 20.1961C29.1444 20.2257 28.9658 20.2356 28.7971 20.2454C28.7078 20.2454 28.6184 20.2454 28.5391 20.2454C28.4299 20.2454 28.3307 20.2454 28.2215 20.2454H2.76857C2.66933 20.2454 2.56018 20.2454 2.46095 20.2454C2.37164 20.2454 2.28233 20.2454 2.20294 20.2454C2.02433 20.2454 1.85563 20.2257 1.68694 20.1961C1.53809 20.1665 1.38924 20.1172 1.25032 20.0482C1.1114 19.9792 0.992318 19.8904 0.883163 19.7819C0.774008 19.6735 0.684699 19.5551 0.615237 19.4171C0.545775 19.279 0.496159 19.1311 0.466389 18.9831C0.43662 18.8155 0.426697 18.638 0.416773 18.4703C0.416773 18.3816 0.416773 18.3027 0.416773 18.2139V17.9674V3.61853V3.37198C0.416773 3.28323 0.416773 3.20433 0.416773 3.11558C0.416773 2.95779 0.426697 2.77042 0.466389 2.59291C0.496159 2.44498 0.535851 2.29705 0.615237 2.15899C0.754161 1.88286 0.972471 1.6659 1.25032 1.52784C1.38924 1.4588 1.53809 1.4095 1.68694 1.38977C1.85563 1.36019 2.03425 1.35032 2.21287 1.34046C2.30218 1.34046 2.38156 1.34046 2.47087 1.34046H2.78841H28.2215ZM28.2215 0.92627H2.77849H2.46095C2.37164 0.92627 2.28233 0.92627 2.19302 0.92627C1.99456 0.92627 1.80602 0.945993 1.60755 0.975578C1.41901 1.00516 1.23047 1.0742 1.05186 1.15309C0.704545 1.3306 0.416773 1.61659 0.238156 1.96175C0.148848 2.13926 0.0893086 2.31678 0.0595391 2.51401C0.0297695 2.70138 0.00992318 2.89862 0.00992318 3.09585C0.00992318 3.18461 0.00992318 3.27337 0.00992318 3.36212L0 3.68756V17.8885V18.2041C0 18.2928 0 18.3816 0 18.4703C0.00992318 18.6676 0.0198463 18.8549 0.0496159 19.0522C0.0793854 19.2494 0.138924 19.4269 0.228233 19.6044C0.40685 19.9496 0.694622 20.2356 1.04193 20.4131C1.22055 20.5018 1.39917 20.561 1.59763 20.5906C1.78617 20.6202 1.98463 20.6399 2.1831 20.6399C2.27241 20.6399 2.36172 20.6399 2.45102 20.6399C2.56018 20.6399 2.65941 20.6399 2.76857 20.6399H28.2215C28.3307 20.6399 28.4299 20.6399 28.5391 20.6399C28.6284 20.6399 28.7177 20.6399 28.807 20.6399C29.0054 20.63 29.194 20.6202 29.3924 20.5906C29.581 20.561 29.7695 20.492 29.9481 20.4131C30.2955 20.2356 30.5832 19.9496 30.7618 19.6044C30.8512 19.4269 30.9107 19.2494 30.9405 19.0522C30.9802 18.8648 30.9901 18.6676 30.9901 18.4703C30.9901 18.3816 30.9901 18.2928 30.9901 18.2041C30.9901 18.0956 30.9901 17.997 30.9901 17.8885V3.68756C30.9901 3.57908 30.9901 3.48046 30.9901 3.37198C30.9901 3.28323 30.9901 3.19447 30.9901 3.10572C30.9901 2.90848 30.9702 2.72111 30.9405 2.52387C30.9107 2.3365 30.8512 2.14913 30.7618 1.97162C30.5832 1.62645 30.2955 1.34046 29.9481 1.16295C29.7695 1.0742 29.5909 1.01503 29.3924 0.98544C29.2039 0.955855 29.0054 0.936131 28.807 0.936131C28.7177 0.936131 28.6284 0.936131 28.5391 0.936131H28.2215V0.92627Z" fill="black" stroke="black" stroke-width="8" mask="url(#path-1-inside-1)"/>
</svg>
