<svg width="26" height="24" viewBox="0 0 26 24" fill="none" xmlns="http://www.w3.org/2000/svg">
<path d="M12.3 22.8C13.4046 22.8 14.3 21.9046 14.3 20.8C14.3 19.6955 13.4046 18.8 12.3 18.8C11.1954 18.8 10.3 19.6955 10.3 20.8C10.3 21.9046 11.1954 22.8 12.3 22.8Z" stroke="#B39155" stroke-miterlimit="10" stroke-linecap="round" stroke-linejoin="round"/>
<path d="M22 22.8C23.1046 22.8 24 21.9046 24 20.8C24 19.6955 23.1046 18.8 22 18.8C20.8954 18.8 20 19.6955 20 20.8C20 21.9046 20.8954 22.8 22 22.8Z" stroke="#B39155" stroke-miterlimit="10" stroke-linecap="round" stroke-linejoin="round"/>
<path d="M1 1H5.8C6.1 1 6.4 1.2 6.4 1.5L9.8 13.9H22.1C22.8 13.9 23.4 13.4 23.5 12.7L24.9 5.6C25 5.3 24.7 5 24.4 5L7.7 3.7" stroke="#B39155" stroke-miterlimit="10" stroke-linecap="round" stroke-linejoin="round"/>
<path d="M9.9 13.8L9.3 15.2C9 15.9 9.5 16.6 10.2 16.6L24.1 16.5" stroke="#B39155" stroke-miterlimit="10" stroke-linecap="round" stroke-linejoin="round"/>
</svg>
