<svg width="25" height="25" viewBox="0 0 25 25" fill="none" xmlns="http://www.w3.org/2000/svg">
<path d="M12.5 0.580566C16.4 0.580566 16.9 0.580566 18.4 0.679184C19.8 0.777801 20.6 0.975036 21.1 1.17227C21.8 1.46812 22.3 1.76398 22.8 2.25706C23.3 2.75015 23.6 3.24324 23.9 3.93356C24.1 4.42665 24.3 5.21559 24.4 6.59623C24.5 8.0755 24.5 8.56858 24.5 12.4147C24.5 16.2607 24.5 16.7538 24.4 18.2331C24.3 19.6137 24.1 20.4027 23.9 20.8958C23.6 21.5861 23.3 22.0792 22.8 22.5723C22.3 23.0654 21.8 23.3612 21.1 23.6571C20.6 23.8543 19.8 24.0515 18.4 24.1501C16.9 24.2488 16.4 24.2488 12.5 24.2488C8.6 24.2488 8.1 24.2488 6.6 24.1501C5.2 24.0515 4.4 23.8543 3.9 23.6571C3.2 23.3612 2.7 23.0654 2.2 22.5723C1.7 22.0792 1.4 21.5861 1.1 20.8958C0.9 20.4027 0.7 19.6137 0.6 18.2331C0.5 16.7538 0.5 16.2607 0.5 12.4147C0.5 8.56858 0.5 8.0755 0.6 6.59623C0.7 5.21559 0.9 4.42665 1.1 3.93356C1.4 3.24324 1.7 2.75015 2.2 2.25706C2.7 1.76398 3.2 1.46812 3.9 1.17227C4.4 0.975036 5.2 0.777801 6.6 0.679184C8.1 0.580566 8.6 0.580566 12.5 0.580566Z" stroke="#B39155" stroke-miterlimit="10" stroke-linecap="round" stroke-linejoin="round"/>
<path d="M12.5 6.49756C9.2 6.49756 6.5 9.16023 6.5 12.4146C6.5 15.669 9.2 18.3317 12.5 18.3317C15.8 18.3317 18.5 15.669 18.5 12.4146C18.5 9.16023 15.8 6.49756 12.5 6.49756Z" stroke="#B39155" stroke-miterlimit="10" stroke-linecap="round" stroke-linejoin="round"/>
<path d="M20.6 5.11697C20.6 5.70867 20.1 6.10314 19.6 6.10314C19 6.10314 18.6 5.61006 18.6 5.11697C18.6 4.52526 19.1 4.13079 19.6 4.13079C20.1 4.03218 20.6 4.52526 20.6 5.11697Z" stroke="#B39155" stroke-miterlimit="10" stroke-linecap="round" stroke-linejoin="round"/>
</svg>
