<svg width="28" height="24" viewBox="0 0 28 24" fill="none" xmlns="http://www.w3.org/2000/svg">
<path d="M27 3.63278C26.0168 4.07783 25.0336 4.41159 23.9411 4.52286C25.0336 3.85529 25.9075 2.74267 26.3445 1.5188C25.2521 2.18637 24.1597 2.63142 22.958 2.85394C21.9748 1.74134 20.5546 1.07373 19.0252 1.07373C16.0756 1.07373 13.6723 3.52149 13.6723 6.52554C13.6723 6.97058 13.6723 7.4156 13.7815 7.74938C9.30252 7.52686 5.36978 5.30167 2.74794 2.0751C2.31096 2.85393 1.98322 3.85528 1.98322 4.85662C1.98322 6.74806 2.96642 8.41694 4.38659 9.41829C3.51264 9.41829 2.63868 9.19579 1.98322 8.75075V8.86199C1.98322 11.5322 3.84036 13.7575 6.35296 14.2026C5.91598 14.3138 5.47902 14.425 4.93281 14.425C4.60507 14.425 4.27732 14.4251 3.94959 14.3138C4.60505 16.539 6.57147 18.0967 8.97483 18.0967C7.11769 19.5431 4.82353 20.4331 2.31094 20.4331C1.87396 20.4331 1.43697 20.4332 1 20.3219C3.40336 21.8796 6.24369 22.7696 9.19326 22.7696C19.1344 22.7696 24.4873 14.425 24.4873 7.19307C24.4873 6.97055 24.4873 6.74806 24.4873 6.52554C25.3613 5.74671 26.2353 4.74539 27 3.63278Z" stroke="#B39155" stroke-miterlimit="10" stroke-linecap="round" stroke-linejoin="round"/>
</svg>
