<svg width="26" height="26" viewBox="0 0 26 26" fill="none" xmlns="http://www.w3.org/2000/svg">
<path fill-rule="evenodd" clip-rule="evenodd" d="M12.9 0.59436C6.30002 0.59436 0.900024 5.91971 0.900024 12.4285C0.900024 14.6967 1.50002 16.7676 2.60002 18.5427L0.400024 24.8543L7.10002 22.7833C8.80002 23.6709 10.8 24.2626 12.9 24.2626C19.5 24.2626 24.9 18.9372 24.9 12.4285C24.9 5.91971 19.5 0.59436 12.9 0.59436ZM12.9 22.1916C10.9 22.1916 9.00002 21.5999 7.40002 20.6137L3.60002 21.7971L4.80002 18.1483C3.60002 16.5704 2.90002 14.4994 2.90002 12.4285C2.90002 7.0045 7.40002 2.56671 12.9 2.56671C18.4 2.56671 22.9 7.0045 22.9 12.4285C22.9 17.8524 18.4 22.1916 12.9 22.1916ZM18.5 15.0911C18.2 14.8939 16.7 14.105 16.4 14.0063C16.2 13.9077 16 13.9077 15.8 14.2036C15.6 14.4994 15 15.1898 14.8 15.387C14.6 15.5842 14.4 15.5842 14.1 15.4856C13.8 15.2884 12.8 14.9925 11.7 13.9077C10.8 13.1188 10.2 12.034 10.1 11.7381C9.90003 11.4423 10.1 11.2451 10.3 11.1464C10.4 11.0478 10.6 10.8506 10.8 10.6533C11 10.4561 11 10.3575 11.1 10.1603C11.2 9.96302 11.2 9.76579 11.1 9.66717C11 9.46994 10.5 7.99067 10.2 7.39897C10 6.61003 9.70002 6.70865 9.50002 6.70865C9.30002 6.70865 9.10002 6.70865 8.90002 6.70865C8.70002 6.61003 8.40002 6.70865 8.10002 7.0045C7.80002 7.30035 7.00002 7.99067 6.90002 9.46994C6.80002 10.9492 7.90002 12.4285 8.00002 12.6257C8.10002 12.8229 10 16.0773 13 17.3593C16.1 18.6414 16.1 18.2469 16.6 18.2469C17.2 18.2469 18.4 17.5566 18.7 16.8662C19 16.1759 19 15.5842 18.9 15.4856C19 15.2884 18.8 15.2884 18.5 15.0911Z" stroke="#B39155" stroke-miterlimit="10" stroke-linecap="round" stroke-linejoin="round"/>
</svg>
